<?xml version="1.0" encoding="UTF-8"?>
<svg width="25px" height="25px" viewBox="0 0 25 25" version="1.1" xmlns="http://www.w3.org/2000/svg" xmlns:xlink="http://www.w3.org/1999/xlink">
    <!-- Generator: Sketch 51.2 (57519) - http://www.bohemiancoding.com/sketch -->
    <title>Icons/Close/grey</title>
    <desc>Created with Sketch.</desc>
    <defs></defs>
    <g id="Icons/Close/grey" stroke="none" stroke-width="1" fill="none" fill-rule="evenodd">
        <rect id="bounds" fill-opacity="0.338428442" fill="#1C8FF8" opacity="0" x="0" y="0" width="25" height="25"></rect>
        <g id="+" transform="translate(13.000000, 12.000000) rotate(-315.000000) translate(-13.000000, -12.000000) translate(1.000000, 0.000000)" fill="#AAB2B7" fill-rule="nonzero">
            <path d="M4.16523236,19.8347676 C4.27538726,19.9449225 4.4130809,20 4.56454389,20 C4.71600688,20 4.85370052,19.9449225 4.96385542,19.8347676 L12,12.7986231 L19.0361446,19.8347676 C19.1462995,19.9449225 19.2839931,20 19.4354561,20 C19.5731497,20 19.7246127,19.9449225 19.8347676,19.8347676 C20.0550775,19.6144578 20.0550775,19.2564544 19.8347676,19.0361446 L12.7986231,12 L19.8347676,4.96385542 C20.0550775,4.74354561 20.0550775,4.38554217 19.8347676,4.16523236 C19.6144578,3.94492255 19.2564544,3.94492255 19.0361446,4.16523236 L12,11.2013769 L4.96385542,4.16523236 C4.74354561,3.94492255 4.38554217,3.94492255 4.16523236,4.16523236 C3.94492255,4.38554217 3.94492255,4.74354561 4.16523236,4.96385542 L11.2013769,12 L4.16523236,19.0361446 C3.94492255,19.2564544 3.94492255,19.6144578 4.16523236,19.8347676 Z" id="Shape" transform="translate(12.000000, 12.000000) rotate(45.000000) translate(-12.000000, -12.000000) "></path>
        </g>
    </g>
</svg>